<?xml version="1.0" standalone="no"?>
<!DOCTYPE svg PUBLIC "-//W3C//DTD SVG 20010904//EN"
 "http://www.w3.org/TR/2001/REC-SVG-20010904/DTD/svg10.dtd">
<svg version="1.0" xmlns="http://www.w3.org/2000/svg"
 width="512.000000pt" height="512.000000pt" viewBox="0 0 512.000000 512.000000"
 preserveAspectRatio="xMidYMid meet">

<g transform="translate(0.000000,512.000000) scale(0.100000,-0.100000)"
fill="#000000" stroke="none">
<path d="M1444 5102 c-17 -9 -272 -189 -567 -400 -564 -403 -567 -406 -567
-482 0 -71 21 -93 259 -262 124 -89 236 -169 248 -178 l22 -17 -30 -44 c-57
-84 -137 -235 -183 -342 -394 -924 -65 -2008 779 -2568 269 -179 609 -300 950
-340 50 -5 318 -13 598 -16 l507 -5 0 -167 c0 -191 9 -220 76 -258 46 -27 93
-29 137 -7 17 10 273 189 567 400 567 405 570 408 570 485 0 70 -22 92 -259
261 -124 89 -236 169 -248 178 l-21 16 49 76 c393 611 435 1417 106 2064 -117
228 -240 397 -418 569 -290 281 -651 473 -1034 550 -202 41 -301 47 -822 52
l-503 5 0 167 c0 143 -3 171 -19 201 -36 69 -131 99 -197 62z m-84 -522 c0
-71 4 -99 20 -130 39 -77 17 -74 635 -80 526 -6 553 -7 628 -28 270 -75 438
-258 501 -545 6 -27 4 -26 -58 25 -94 78 -209 144 -320 183 -168 61 -221 65
-784 65 -484 0 -504 -1 -542 -20 -61 -31 -80 -78 -80 -194 l0 -95 -316 225
c-173 124 -314 230 -312 236 4 11 608 447 621 447 4 1 7 -40 7 -89z m2220
-538 c253 -178 438 -388 574 -652 267 -519 273 -1122 15 -1632 -72 -144 -129
-231 -143 -220 -6 5 -89 64 -184 132 -152 108 -179 124 -220 127 -59 5 -117
-26 -143 -77 -16 -30 -19 -58 -19 -202 l0 -168 -404 0 c-439 0 -503 6 -627 56
-181 73 -346 238 -416 417 -32 81 -71 117 -137 124 -56 7 -115 -25 -144 -76
-54 -98 -85 -341 -63 -506 19 -143 83 -316 159 -434 14 -20 4 -17 -79 24 -510
256 -866 743 -966 1321 -21 123 -24 432 -4 549 31 195 88 371 172 538 72 143
129 230 143 219 6 -5 89 -64 184 -132 152 -108 179 -124 220 -127 59 -5 117
26 143 77 16 30 19 58 19 203 l0 168 443 -4 c470 -4 464 -3 596 -56 173 -69
339 -238 408 -414 32 -81 71 -117 136 -124 84 -10 136 35 171 147 73 231 54
529 -49 763 -20 45 -39 88 -42 96 -8 19 173 -78 257 -137z m814 -3143 c-5 -9
-621 -449 -628 -449 -4 0 -6 41 -6 90 0 71 -4 99 -20 130 -39 77 -19 74 -625
81 -600 6 -590 5 -737 79 -192 97 -352 294 -393 481 l-7 32 61 -49 c93 -76
207 -141 315 -179 168 -61 221 -65 784 -65 484 0 504 1 542 20 61 31 80 78 80
194 l0 95 319 -227 c175 -125 317 -230 315 -233z"/>
<path d="M2486 3436 c-53 -32 -75 -77 -76 -151 l0 -60 -55 -29 c-218 -114
-266 -439 -87 -596 52 -46 163 -104 294 -154 53 -21 104 -47 115 -58 24 -27
23 -100 -4 -135 -40 -55 -69 -68 -147 -68 -63 1 -82 6 -147 38 -79 39 -109 44
-156 26 -106 -40 -132 -174 -47 -248 43 -38 141 -89 192 -99 l37 -8 5 -64 c7
-81 27 -119 78 -148 49 -27 91 -28 142 -2 55 28 80 80 80 167 l1 68 50 24 c69
32 150 116 188 193 81 168 53 357 -72 476 -61 57 -91 74 -240 132 -164 64
-214 122 -154 178 49 46 119 38 212 -25 38 -25 60 -33 95 -33 113 0 183 113
134 216 -20 41 -120 119 -175 135 l-39 12 0 59 c0 78 -27 131 -80 158 -52 26
-96 25 -144 -4z"/>
</g>
</svg>
