<?xml version="1.0" standalone="no"?>
<!DOCTYPE svg PUBLIC "-//W3C//DTD SVG 20010904//EN"
 "http://www.w3.org/TR/2001/REC-SVG-20010904/DTD/svg10.dtd">
<svg version="1.0" xmlns="http://www.w3.org/2000/svg"
 width="512.000000pt" height="512.000000pt" viewBox="0 0 512.000000 512.000000"
 preserveAspectRatio="xMidYMid meet">

<g transform="translate(0.000000,512.000000) scale(0.100000,-0.100000)"
fill="#000000" stroke="none">
<path d="M2385 5114 c-205 -22 -417 -67 -566 -120 -799 -286 -1375 -991 -1494
-1829 -8 -55 -15 -113 -15 -130 l0 -30 227 4 c205 3 303 -4 354 -24 14 -5 18
5 24 67 22 231 129 518 270 728 469 694 1364 934 2108 565 447 -222 774 -641
886 -1135 10 -47 22 -118 26 -158 6 -62 10 -72 24 -67 51 20 149 27 354 24
l227 -4 0 30 c0 17 -7 75 -15 130 -98 688 -505 1295 -1105 1647 -245 143 -518
240 -800 283 -101 15 -423 27 -505 19z"/>
<path d="M361 2699 c-172 -34 -318 -182 -351 -358 -13 -72 -13 -1000 0 -1072
34 -180 179 -325 359 -359 30 -5 134 -10 233 -10 208 0 242 10 278 80 20 38
20 57 20 825 0 768 0 787 -20 825 -36 71 -69 80 -287 79 -103 -1 -208 -5 -232
-10z"/>
<path d="M4298 2689 c-23 -12 -46 -35 -58 -59 -20 -38 -20 -57 -20 -975 0
-918 0 -937 -20 -975 -13 -26 -34 -47 -60 -60 -37 -19 -58 -20 -442 -20 l-403
0 -30 57 c-59 114 -179 205 -303 232 -68 14 -708 15 -783 1 -235 -45 -399
-275 -361 -506 31 -190 175 -339 361 -374 75 -14 715 -13 783 1 124 27 244
118 303 232 l30 57 401 0 c231 0 424 4 455 10 136 26 263 122 319 242 37 79
50 146 50 259 l0 89 89 0 c48 0 112 5 142 10 180 34 325 179 359 359 6 32 10
250 10 536 0 286 -4 504 -10 536 -34 180 -179 325 -359 359 -30 5 -135 10
-235 10 -160 -1 -185 -3 -218 -21z"/>
</g>
</svg>
