<?xml version="1.0" standalone="no"?>
<!DOCTYPE svg PUBLIC "-//W3C//DTD SVG 20010904//EN"
 "http://www.w3.org/TR/2001/REC-SVG-20010904/DTD/svg10.dtd">
<svg version="1.0" xmlns="http://www.w3.org/2000/svg"
 width="512.000000pt" height="512.000000pt" viewBox="0 0 512.000000 512.000000"
 preserveAspectRatio="xMidYMid meet">

<g transform="translate(0.000000,512.000000) scale(0.100000,-0.100000)"
fill="#000000" stroke="none">
<path d="M2380 4880 c-595 -83 -1077 -505 -1224 -1072 -39 -150 -49 -254 -43
-428 11 -280 88 -520 239 -746 l54 -80 -96 -12 c-169 -20 -346 -88 -489 -189
-36 -25 -236 -215 -444 -422 l-377 -375 107 -108 107 -108 391 388 390 388 95
47 c135 67 199 82 355 81 162 0 211 -12 405 -104 281 -132 375 -150 836 -159
l351 -6 40 -27 c118 -78 106 -266 -19 -327 -43 -20 -57 -21 -466 -21 l-422 0
0 -150 0 -150 439 0 c483 0 497 2 608 65 31 18 274 252 673 651 433 431 636
628 662 639 161 66 324 -104 248 -259 -13 -28 -239 -260 -682 -702 -711 -709
-709 -708 -873 -770 -148 -55 -158 -56 -770 -64 -624 -8 -608 -7 -811 -75
-175 -58 -336 -151 -482 -276 l-73 -63 107 -107 107 -107 59 51 c126 112 293
199 478 250 70 19 112 21 645 28 463 6 584 10 645 23 160 34 306 95 439 183
101 67 283 244 975 948 521 530 522 531 548 682 55 328 -237 620 -565 565
-153 -26 -154 -26 -659 -530 -252 -251 -459 -454 -461 -451 -2 2 -16 26 -32
54 -16 27 -48 71 -72 96 l-44 47 83 55 c600 403 813 1172 507 1826 -134 286
-404 556 -691 691 -110 51 -245 95 -355 115 -105 19 -352 27 -443 15z m350
-305 c603 -91 1035 -646 972 -1249 -90 -864 -1052 -1320 -1782 -845 -81 53
-263 234 -315 314 -131 199 -195 413 -195 645 0 441 248 838 644 1030 219 106
442 141 676 105z"/>
<path d="M2410 4252 l0 -88 -55 -27 c-229 -112 -314 -405 -182 -629 36 -62
128 -145 193 -175 49 -22 86 -30 222 -49 44 -7 99 -57 113 -105 23 -75 -32
-171 -105 -184 -18 -4 -109 0 -202 8 -93 8 -170 14 -171 13 -6 -5 -26 -286
-21 -291 5 -5 154 -23 201 -25 4 0 7 -36 7 -80 l0 -80 150 0 150 0 0 88 1 87
52 24 c116 55 216 194 239 335 39 237 -135 471 -377 507 -39 6 -85 13 -104 15
-21 3 -48 19 -67 38 -78 78 -45 216 59 244 34 10 185 -5 343 -33 l31 -5 17
127 c10 71 20 138 23 149 4 20 -2 22 -79 33 -153 21 -138 10 -138 107 l0 84
-150 0 -150 0 0 -88z"/>
</g>
</svg>
