<?xml version="1.0" standalone="no"?>
<!DOCTYPE svg PUBLIC "-//W3C//DTD SVG 20010904//EN"
 "http://www.w3.org/TR/2001/REC-SVG-20010904/DTD/svg10.dtd">
<svg version="1.0" xmlns="http://www.w3.org/2000/svg"
 width="512.000000pt" height="512.000000pt" viewBox="0 0 512.000000 512.000000"
 preserveAspectRatio="xMidYMid meet">

<g transform="translate(0.000000,512.000000) scale(0.100000,-0.100000)"
fill="#000000" stroke="none">
<path d="M2805 5010 c-465 -67 -752 -113 -770 -123 -17 -9 -460 -447 -986
-974 -881 -883 -958 -963 -987 -1024 -82 -171 -81 -347 4 -512 35 -67 97 -132
843 -880 443 -444 829 -826 857 -848 l51 -39 6 -88 c16 -232 157 -419 375
-494 l67 -23 1205 0 1205 0 67 23 c163 57 286 178 350 348 l23 59 3 1383 c2
1261 1 1385 -14 1414 -9 17 -130 182 -268 367 -139 185 -256 342 -260 349 -4
7 -2 51 4 98 18 127 13 136 -185 334 l-165 165 165 165 c200 202 218 235 175
325 -35 73 -122 104 -194 70 -17 -8 -105 -89 -196 -180 l-165 -165 -170 169
c-93 93 -183 174 -198 180 -16 6 -45 11 -65 10 -20 -1 -370 -50 -777 -109z
m863 -333 l132 -132 -105 -105 -105 -105 -62 62 c-75 73 -94 83 -150 83 -110
0 -181 -115 -132 -213 21 -42 416 -441 473 -478 119 -77 253 16 226 158 -5 27
-25 55 -73 105 l-66 69 105 104 104 105 132 -132 132 -133 -97 -677 -97 -678
-915 -916 c-538 -538 -931 -924 -955 -937 -53 -28 -164 -30 -215 -3 -49 25
-1646 1621 -1673 1671 -29 54 -30 163 -3 220 13 27 317 338 932 955 l913 915
668 96 c368 53 675 97 683 98 8 1 75 -59 148 -132z m1152 -2860 c0 -1465 5
-1362 -75 -1442 -79 -80 3 -75 -1275 -75 -1278 0 -1196 -5 -1275 75 -35 34
-75 113 -75 146 0 4 21 10 48 14 72 10 136 31 205 66 54 28 191 161 1020 988
768 767 960 964 972 996 7 22 41 238 75 480 34 242 63 446 66 454 2 8 71 -75
159 -193 l155 -206 0 -1303z"/>
<path d="M2545 3976 c-17 -7 -43 -27 -57 -44 -20 -24 -117 -305 -388 -1117
-387 -1163 -373 -1109 -329 -1181 51 -84 189 -84 244 -1 23 36 735 2176 735
2211 0 46 -39 104 -85 126 -48 23 -78 25 -120 6z"/>
<path d="M1311 3219 c-160 -31 -305 -167 -346 -324 -42 -163 5 -325 127 -442
116 -109 268 -148 423 -107 218 56 365 284 326 505 -45 251 -283 417 -530 368z
m168 -316 c69 -52 87 -122 49 -192 -52 -98 -186 -108 -251 -19 -29 39 -33 115
-9 158 40 73 148 100 211 53z"/>
<path d="M2995 3216 c-131 -32 -242 -121 -302 -243 -33 -67 -38 -86 -41 -169
-4 -74 0 -107 17 -162 96 -318 505 -417 742 -180 174 173 176 447 4 627 -109
115 -270 163 -420 127z m187 -317 c39 -28 60 -72 60 -127 0 -107 -128 -178
-220 -122 -89 55 -98 189 -15 248 16 11 37 22 48 25 34 9 96 -3 127 -24z"/>
</g>
</svg>
